HIERARCHY
ROOT Hips
{
	OFFSET 0.000000 0.000000 0.000000 
	CHANNELS 6 Xposition Yposition Zposition Zrotation Yrotation Xrotation
	JOINT LeftUpLeg
	{
		OFFSET 1.363060 -1.794630 0.839290 
		CHANNELS 3 Zrotation Yrotation Xrotation
		JOINT LeftLeg
		{
			OFFSET 2.448110 -6.726130 0.000000 
			CHANNELS 3 Zrotation Yrotation Xrotation
			JOINT LeftFoot
			{
				OFFSET 2.562200 -7.039590 0.000000 
				CHANNELS 3 Zrotation Yrotation Xrotation
				JOINT LeftToeBase
				{
					OFFSET 0.157640 -0.433110 2.322550 
					CHANNELS 3 Zrotation Yrotation Xrotation
					End Site
					{
						OFFSET 0.000000 0.000000 0.000000 
					}
				}
			}
		}
	}
	JOINT RightUpLeg
	{
		OFFSET -1.305520 -1.794630 0.839290 
		CHANNELS 3 Zrotation Yrotation Xrotation
		JOINT RightLeg
		{
			OFFSET -2.542530 -6.985550 0.000000 
			CHANNELS 3 Zrotation Yrotation Xrotation
			JOINT RightFoot
			{
				OFFSET -2.568260 -7.056230 0.000000 
				CHANNELS 3 Zrotation Yrotation Xrotation
				JOINT RightToeBase
				{
					OFFSET -0.164730 -0.452590 2.363150 
					CHANNELS 3 Zrotation Yrotation Xrotation
					End Site
					{
						OFFSET 0.000000 0.000000 0.000000 
					}
				}
			}
		}
	}
	JOINT Spine
	{
		OFFSET 0.028270 2.035590 -0.193380 
		CHANNELS 3 Zrotation Yrotation Xrotation
		JOINT Spine1
		{
			OFFSET 0.056720 2.048850 -0.042750 
			CHANNELS 3 Zrotation Yrotation Xrotation
			JOINT Neck1
			{
				OFFSET -0.054170 1.746240 0.172020 
				CHANNELS 3 Zrotation Yrotation Xrotation
				JOINT Head
				{
					OFFSET 0.104070 1.761360 -0.123970 
					CHANNELS 3 Zrotation Yrotation Xrotation
					End Site
					{
						OFFSET 0.000000 0.000000 0.000000 
					}
				}
			}
			JOINT LeftArm
			{
				OFFSET 3.362410 1.200890 -0.311210 
				CHANNELS 3 Zrotation Yrotation Xrotation
				JOINT LeftForeArm
				{
					OFFSET 4.983000 -0.000000 -0.000000 
					CHANNELS 3 Zrotation Yrotation Xrotation
					JOINT LeftHand
					{
						OFFSET 3.483560 -0.000000 -0.000000 
						CHANNELS 3 Zrotation Yrotation Xrotation
						JOINT LeftHandIndex1
						{
							OFFSET 0.715260 -0.000000 -0.000000 
							CHANNELS 3 Zrotation Yrotation Xrotation
							End Site
							{
								OFFSET 0.000000 0.000000 0.000000 
							}
						}
					}
				}
			}
			JOINT RightArm
			{
				OFFSET -3.136600 1.374050 -0.404650 
				CHANNELS 3 Zrotation Yrotation Xrotation
				JOINT RightForeArm
				{
					OFFSET -5.241900 -0.000000 -0.000000 
					CHANNELS 3 Zrotation Yrotation Xrotation
					JOINT RightHand
					{
						OFFSET -3.444170 -0.000000 -0.000000 
						CHANNELS 3 Zrotation Yrotation Xrotation
						JOINT RightHandIndex1
						{
							OFFSET -0.622530 -0.000000 -0.000000 
							CHANNELS 3 Zrotation Yrotation Xrotation
							End Site
							{
								OFFSET 0.000000 0.000000 0.000000 
							}
						}
					}
				}
			}
		}
	}
}
MOTION
Frames: 9
Frame Time: 0.041667
10.063593 17.692482 16.272098 -177.269617 -0.637294 -176.432585 -12.085568 -12.634658 -19.112129 2.159881 14.484765 40.615577 2.511800 -0.443091 -2.703086 4.391200 -12.663600 -38.121800 23.066221 5.076735 -18.506415 -1.672415 -13.974393 41.145784 4.349333 -15.287277 -13.234128 -0.278800 3.396300 -9.384000 2.009167 4.293575 -0.547064 -5.633181 1.704637 -12.608937 14.105001 -2.684547 9.892765 3.310800 -0.941400 4.276500 -84.372200 11.099008 27.678155 20.001977 -20.183302 -5.447580 2.103544 1.585097 7.961869 -7.125000 0.000000 0.000000 83.968137 -13.942946 35.630064 -22.177211 25.979774 -6.924764 1.492024 1.581593 -0.673818 7.125000 0.000000 0.000000 
10.058535 17.690676 16.279203 -177.318189 -0.538551 -176.429771 -12.152027 -12.600946 -19.146950 2.162456 14.494632 40.648634 2.438784 -0.291197 -2.783612 4.448800 -12.734800 -38.383500 22.993491 5.191872 -18.562035 -1.701442 -14.014933 41.275318 4.206217 -14.994929 -13.434799 -0.218200 3.007100 -8.298700 2.074546 4.228131 -0.440350 -5.494932 1.698926 -12.556901 14.318186 -3.228125 9.759532 3.440200 -1.223900 4.263600 -84.271196 10.962457 27.260312 20.088526 -20.296095 -5.485126 2.104537 1.581624 7.833363 -7.125000 0.000000 0.000000 83.519617 -13.659933 35.474374 -22.484818 26.350580 -7.105539 1.440844 1.638480 -1.430057 7.125000 0.000000 0.000000 
10.054561 17.685618 16.290402 -177.255092 -0.359958 -176.340640 -12.101497 -12.490013 -19.309197 2.168496 14.523014 40.704593 2.198659 0.239326 -3.000455 4.673100 -13.005900 -39.390600 23.036241 5.380640 -18.676985 -1.716947 -14.056715 41.360660 4.099070 -14.761146 -13.481329 -0.185400 2.773500 -7.648800 2.141464 4.216021 -0.353692 -5.409755 1.708682 -12.463030 14.441791 -3.767381 9.661354 3.522900 -1.502300 4.273500 -84.083852 10.965747 27.132431 20.361676 -20.619874 -5.596164 2.084454 1.566223 7.561306 -7.125000 0.000000 0.000000 83.132619 -13.272129 35.253307 -22.570532 26.466947 -7.172561 1.424503 1.663833 -1.476066 7.125000 0.000000 0.000000 
10.050948 17.681885 16.302926 -177.237466 -0.121357 -176.244523 -12.089340 -12.327737 -19.488031 2.182045 14.547046 40.754622 2.149479 0.344412 -3.014163 4.650600 -12.979200 -39.290500 23.021748 5.444205 -18.870660 -1.742306 -14.099831 41.434351 4.104250 -14.734107 -13.274232 -0.218900 3.011900 -8.311800 2.152099 4.223340 -0.295006 -5.377107 1.721488 -12.416356 14.471092 -4.253114 9.535982 3.548900 -1.754300 4.271700 -83.835332 10.851376 26.990685 20.456396 -20.738024 -5.638431 2.048526 1.588477 7.287945 -7.125000 0.000000 0.000000 82.800201 -12.994930 35.101148 -22.723748 26.640625 -7.249342 1.413028 1.667027 -1.511178 7.125000 0.000000 0.000000 
10.046854 17.681283 16.311356 -177.321818 0.012559 -176.224062 -12.187314 -12.269391 -19.559720 2.215852 14.577388 40.854718 2.282165 0.049716 -2.991805 4.499600 -12.797100 -38.613700 22.904869 5.388295 -19.005551 -1.774660 -14.131638 41.529454 3.985808 -14.443494 -13.223982 -0.193200 2.830600 -7.807400 2.063789 4.192473 -0.311902 -5.427794 1.705545 -12.549135 14.549816 -4.584788 9.244994 3.585000 -1.939500 4.154900 -83.536362 10.720054 26.667676 20.318875 -20.603036 -5.589337 2.044392 1.616533 7.271534 -7.125000 0.000000 0.000000 82.616612 -12.880022 34.980321 -22.887712 26.820985 -7.320960 1.402278 1.665229 -1.877170 7.125000 0.000000 0.000000 
10.042398 17.678392 16.320508 -177.359535 0.078845 -176.169500 -12.231703 -12.245405 -19.686680 2.249350 14.617073 40.960753 2.338187 -0.078890 -3.011419 4.456600 -12.744400 -38.418900 22.856059 5.433871 -19.137487 -1.804014 -14.172205 41.631182 3.967597 -14.402533 -13.220716 -0.196600 2.855600 -7.877100 1.951911 4.149792 -0.420637 -5.558952 1.664899 -12.789012 14.645728 -4.876845 9.070294 3.630600 -2.100000 4.073600 -83.225627 10.721465 26.345839 20.192952 -20.483948 -5.542116 2.056267 1.625596 7.449305 -7.125000 0.000000 0.000000 82.475334 -12.880782 35.036384 -22.995529 26.933528 -7.355822 1.406176 1.647816 -2.252283 7.125000 0.000000 0.000000 
10.040231 17.668759 16.338210 -177.285846 0.165770 -176.035411 -12.144255 -12.173914 -19.955902 2.285428 14.668830 41.065973 2.323015 -0.045616 -3.022392 4.472700 -12.764200 -38.492000 22.942618 5.631904 -19.337960 -1.829470 -14.233096 41.732244 4.146213 -14.813340 -13.123480 -0.285100 3.434200 -9.489900 1.959454 4.099317 -0.432500 -5.594428 1.631771 -12.833279 14.627799 -5.176602 9.042320 3.629000 -2.253100 4.093400 -82.977786 10.597935 26.072222 20.188122 -20.487942 -5.534131 2.049704 1.627410 7.438044 -7.125000 0.000000 0.000000 82.185253 -12.702305 35.105032 -23.173088 27.125517 -7.438212 1.396419 1.646101 -2.578250 7.125000 0.000000 0.000000 
10.040592 17.662978 16.358320 -177.214031 0.230770 -175.874814 -12.046917 -12.136251 -20.229915 2.324104 14.725430 41.181586 2.283462 0.042596 -3.078819 4.554100 -12.863400 -38.859200 23.019616 5.717126 -19.598587 -1.855854 -14.293932 41.849887 4.110800 -14.739451 -13.123696 -0.278700 3.395400 -9.381500 2.030072 4.022827 -0.361655 -5.518155 1.604507 -12.738661 14.454204 -5.444709 8.977108 3.553800 -2.393200 4.104900 -82.708135 10.382699 26.016741 20.285561 -20.607068 -5.576307 2.012482 1.648183 7.091154 -7.125000 0.000000 0.000000 81.860423 -12.373179 34.975866 -23.354953 27.323766 -7.529051 1.380933 1.651945 -2.751646 7.125000 0.000000 0.000000 
10.039147 17.660690 16.372049 -177.173928 0.428903 -175.760951 -12.007984 -12.018612 -20.442895 2.363015 14.776009 41.307951 2.232953 0.156088 -3.172079 4.641300 -12.968100 -39.249200 23.048126 5.829037 -19.793914 -1.882340 -14.348154 41.976174 3.912703 -14.301137 -13.223395 -0.196800 2.856700 -7.880000 2.077052 4.011822 -0.276429 -5.480595 1.607198 -12.643588 14.294351 -5.629628 8.850598 3.491900 -2.497500 4.074300 -82.443493 10.215225 26.067414 20.353463 -20.702180 -5.621660 1.984348 1.676921 6.688091 -7.125000 0.000000 0.000000 81.524411 -12.071428 34.906515 -23.481394 27.456062 -7.582041 1.372784 1.648335 -3.020138 7.125000 0.000000 0.000000 
